# Blender v2.92.0 OBJ File: 'trans_models_keypoint.blend'
# www.blender.org
mtllib plate_1.mtl
o plate_1_Circle.004
v 0.000000 0.053587 -0.008042
v -0.010454 0.052557 -0.008042
v -0.020507 0.049508 -0.008042
v -0.029771 0.044556 -0.008042
v -0.037892 0.037892 -0.008042
v -0.044556 0.029771 -0.008042
v -0.049508 0.020507 -0.008042
v -0.052557 0.010454 -0.008042
v -0.053587 -0.000000 -0.008042
v -0.052557 -0.010454 -0.008042
v -0.049508 -0.020507 -0.008042
v -0.044556 -0.029771 -0.008042
v -0.037892 -0.037892 -0.008042
v -0.029771 -0.044556 -0.008042
v -0.020507 -0.049508 -0.008042
v -0.010454 -0.052557 -0.008042
v 0.000000 -0.053587 -0.008042
v 0.010454 -0.052557 -0.008042
v 0.020507 -0.049508 -0.008042
v 0.029771 -0.044556 -0.008042
v 0.037892 -0.037892 -0.008042
v 0.044556 -0.029771 -0.008042
v 0.049508 -0.020507 -0.008042
v 0.052557 -0.010454 -0.008042
v 0.053587 0.000000 -0.008042
v 0.052557 0.010454 -0.008042
v 0.049508 0.020507 -0.008042
v 0.044556 0.029771 -0.008042
v 0.037892 0.037892 -0.008042
v 0.029771 0.044556 -0.008042
v 0.020507 0.049508 -0.008042
v 0.010454 0.052557 -0.008042
v 0.000000 0.053587 -0.006112
v -0.010454 0.052557 -0.006112
v -0.020507 0.049508 -0.006112
v -0.029771 0.044556 -0.006112
v -0.037892 0.037892 -0.006112
v -0.044556 0.029771 -0.006112
v -0.049508 0.020507 -0.006112
v -0.052557 0.010454 -0.006112
v -0.053587 -0.000000 -0.006112
v -0.052557 -0.010454 -0.006112
v -0.049508 -0.020507 -0.006112
v -0.044556 -0.029771 -0.006112
v -0.037892 -0.037892 -0.006112
v -0.029771 -0.044556 -0.006112
v -0.020507 -0.049508 -0.006112
v -0.010454 -0.052557 -0.006112
v 0.000000 -0.053587 -0.006112
v 0.010454 -0.052557 -0.006112
v 0.020507 -0.049508 -0.006112
v 0.029771 -0.044556 -0.006112
v 0.037892 -0.037892 -0.006112
v 0.044556 -0.029771 -0.006112
v 0.049508 -0.020507 -0.006112
v 0.052557 -0.010454 -0.006112
v 0.053587 0.000000 -0.006112
v 0.052557 0.010454 -0.006112
v 0.049508 0.020507 -0.006112
v 0.044556 0.029771 -0.006112
v 0.037892 0.037892 -0.006112
v 0.029771 0.044556 -0.006112
v 0.020507 0.049508 -0.006112
v 0.010454 0.052557 -0.006112
v 0.000000 0.101048 0.014154
v -0.019713 0.099106 0.014154
v -0.038669 0.093356 0.014154
v -0.056139 0.084018 0.014154
v -0.071451 0.071451 0.014154
v -0.084018 0.056139 0.014154
v -0.093356 0.038669 0.014154
v -0.099106 0.019713 0.014154
v -0.101048 -0.000000 0.014154
v -0.099106 -0.019713 0.014154
v -0.093356 -0.038669 0.014154
v -0.084018 -0.056139 0.014154
v -0.071451 -0.071452 0.014154
v -0.056139 -0.084018 0.014154
v -0.038669 -0.093356 0.014154
v -0.019713 -0.099106 0.014154
v 0.000000 -0.101048 0.014154
v 0.019713 -0.099106 0.014154
v 0.038669 -0.093356 0.014154
v 0.056139 -0.084018 0.014154
v 0.071452 -0.071451 0.014154
v 0.084018 -0.056139 0.014154
v 0.093356 -0.038669 0.014154
v 0.099106 -0.019713 0.014154
v 0.101048 0.000000 0.014154
v 0.099106 0.019713 0.014154
v 0.093356 0.038669 0.014154
v 0.084018 0.056139 0.014154
v 0.071451 0.071452 0.014154
v 0.056139 0.084018 0.014154
v 0.038669 0.093356 0.014154
v 0.019713 0.099106 0.014154
v 0.000000 0.055042 -0.009413
v -0.010738 0.053985 -0.009413
v -0.021064 0.050853 -0.009413
v -0.030580 0.045766 -0.009413
v -0.038921 0.038921 -0.009413
v -0.045766 0.030580 -0.009413
v -0.050853 0.021064 -0.009413
v -0.053985 0.010738 -0.009413
v -0.055042 -0.000000 -0.009413
v -0.053985 -0.010738 -0.009413
v -0.050853 -0.021064 -0.009413
v -0.045766 -0.030580 -0.009413
v -0.038921 -0.038921 -0.009413
v -0.030580 -0.045766 -0.009413
v -0.021064 -0.050853 -0.009413
v -0.010738 -0.053985 -0.009413
v 0.000000 -0.055043 -0.009413
v 0.010738 -0.053985 -0.009413
v 0.021064 -0.050853 -0.009413
v 0.030580 -0.045766 -0.009413
v 0.038921 -0.038921 -0.009413
v 0.045766 -0.030580 -0.009413
v 0.050853 -0.021064 -0.009413
v 0.053985 -0.010738 -0.009413
v 0.055043 0.000000 -0.009413
v 0.053985 0.010738 -0.009413
v 0.050853 0.021064 -0.009413
v 0.045766 0.030580 -0.009413
v 0.038921 0.038921 -0.009413
v 0.030580 0.045766 -0.009413
v 0.021064 0.050853 -0.009413
v 0.010738 0.053985 -0.009413
v 0.000000 0.055234 -0.007247
v -0.010775 0.054172 -0.007247
v -0.021137 0.051029 -0.007247
v -0.030686 0.045925 -0.007247
v -0.039056 0.039056 -0.007247
v -0.045925 0.030686 -0.007247
v -0.051029 0.021137 -0.007247
v -0.054172 0.010775 -0.007247
v -0.055234 -0.000000 -0.007247
v -0.054172 -0.010776 -0.007247
v -0.051029 -0.021137 -0.007247
v -0.045925 -0.030686 -0.007247
v -0.039056 -0.039056 -0.007247
v -0.030686 -0.045925 -0.007247
v -0.021137 -0.051029 -0.007247
v -0.010775 -0.054172 -0.007247
v 0.000000 -0.055234 -0.007247
v 0.010776 -0.054172 -0.007247
v 0.021137 -0.051029 -0.007247
v 0.030686 -0.045925 -0.007247
v 0.039056 -0.039056 -0.007247
v 0.045925 -0.030686 -0.007247
v 0.051029 -0.021137 -0.007247
v 0.054172 -0.010775 -0.007247
v 0.055234 0.000000 -0.007247
v 0.054172 0.010776 -0.007247
v 0.051029 0.021137 -0.007247
v 0.045925 0.030686 -0.007247
v 0.039056 0.039056 -0.007247
v 0.030686 0.045925 -0.007247
v 0.021137 0.051029 -0.007247
v 0.010775 0.054172 -0.007247
v 0.000000 0.101833 0.012314
v -0.019867 0.099876 0.012314
v -0.038970 0.094081 0.012314
v -0.056575 0.084671 0.012314
v -0.072007 0.072007 0.012314
v -0.084671 0.056575 0.012314
v -0.094081 0.038970 0.012314
v -0.099876 0.019867 0.012314
v -0.101833 -0.000000 0.012314
v -0.099876 -0.019867 0.012314
v -0.094081 -0.038970 0.012314
v -0.084671 -0.056575 0.012314
v -0.072007 -0.072007 0.012314
v -0.056575 -0.084671 0.012314
v -0.038970 -0.094081 0.012314
v -0.019867 -0.099876 0.012314
v 0.000000 -0.101833 0.012314
v 0.019867 -0.099876 0.012314
v 0.038970 -0.094081 0.012314
v 0.056575 -0.084671 0.012314
v 0.072007 -0.072007 0.012314
v 0.084671 -0.056575 0.012314
v 0.094081 -0.038970 0.012314
v 0.099876 -0.019867 0.012314
v 0.101833 0.000000 0.012314
v 0.099876 0.019867 0.012314
v 0.094081 0.038970 0.012314
v 0.084671 0.056575 0.012314
v 0.072007 0.072007 0.012314
v 0.056575 0.084671 0.012314
v 0.038970 0.094081 0.012314
v 0.019866 0.099876 0.012314
vt 0.000000 0.000000
vt 0.000000 0.000000
vt 0.000000 0.000000
vt 0.000000 0.000000
vt 0.000000 0.000000
vt 0.000000 0.000000
vt 0.000000 0.000000
vt 0.000000 0.000000
vt 0.000000 0.000000
vt 0.000000 0.000000
vt 0.000000 0.000000
vt 0.000000 0.000000
vt 0.000000 0.000000
vt 0.000000 0.000000
vt 0.000000 0.000000
vt 0.000000 0.000000
vt 0.000000 0.000000
vt 0.000000 0.000000
vt 0.000000 0.000000
vt 0.000000 0.000000
vt 0.000000 0.000000
vt 0.000000 0.000000
vt 0.000000 0.000000
vt 0.000000 0.000000
vt 0.000000 0.000000
vt 0.000000 0.000000
vt 0.000000 0.000000
vt 0.000000 0.000000
vt 0.000000 0.000000
vt 0.000000 0.000000
vt 0.000000 0.000000
vt 0.000000 0.000000
vt 0.000000 0.000000
vt 0.000000 0.000000
vt 0.000000 0.000000
vt 0.000000 0.000000
vt 0.000000 0.000000
vt 0.000000 0.000000
vt 0.000000 0.000000
vt 0.000000 0.000000
vt 0.000000 0.000000
vt 0.000000 0.000000
vt 0.000000 0.000000
vt 0.000000 0.000000
vt 0.000000 0.000000
vt 0.000000 0.000000
vt 0.000000 0.000000
vt 0.000000 0.000000
vt 0.000000 0.000000
vt 0.000000 0.000000
vt 0.000000 0.000000
vt 0.000000 0.000000
vt 0.000000 0.000000
vt 0.000000 0.000000
vt 0.000000 0.000000
vt 0.000000 0.000000
vt 0.000000 0.000000
vt 0.000000 0.000000
vt 0.000000 0.000000
vt 0.000000 0.000000
vt 0.000000 0.000000
vt 0.000000 0.000000
vt 0.000000 0.000000
vt 0.000000 0.000000
vt 0.000000 0.000000
vt 0.000000 0.000000
vt 0.000000 0.000000
vt 0.000000 0.000000
vt 0.000000 0.000000
vt 0.000000 0.000000
vt 0.000000 0.000000
vt 0.000000 0.000000
vt 0.000000 0.000000
vt 0.000000 0.000000
vt 0.000000 0.000000
vt 0.000000 0.000000
vt 0.000000 0.000000
vt 0.000000 0.000000
vt 0.000000 0.000000
vt 0.000000 0.000000
vt 0.000000 0.000000
vt 0.000000 0.000000
vt 0.000000 0.000000
vt 0.000000 0.000000
vt 0.000000 0.000000
vt 0.000000 0.000000
vt 0.000000 0.000000
vt 0.000000 0.000000
vt 0.000000 0.000000
vt 0.000000 0.000000
vt 0.000000 0.000000
vt 0.000000 0.000000
vt 0.000000 0.000000
vt 0.000000 0.000000
vt 0.000000 0.000000
vt 0.000000 0.000000
vt 0.000000 0.000000
vt 0.000000 0.000000
vt 0.000000 0.000000
vt 0.000000 0.000000
vt 0.000000 0.000000
vt 0.000000 0.000000
vt 0.000000 0.000000
vt 0.000000 0.000000
vt 0.000000 0.000000
vt 0.000000 0.000000
vt 0.000000 0.000000
vt 0.000000 0.000000
vt 0.000000 0.000000
vt 0.000000 0.000000
vt 0.000000 0.000000
vt 0.000000 0.000000
vt 0.000000 0.000000
vt 0.000000 0.000000
vt 0.000000 0.000000
vt 0.000000 0.000000
vt 0.000000 0.000000
vt 0.000000 0.000000
vt 0.000000 0.000000
vt 0.000000 0.000000
vt 0.000000 0.000000
vt 0.000000 0.000000
vt 0.000000 0.000000
vt 0.000000 0.000000
vt 0.000000 0.000000
vt 0.000000 0.000000
vt 0.000000 0.000000
vt 0.000000 0.000000
vt 0.000000 0.000000
vt 0.000000 0.000000
vt 0.000000 0.000000
vt 0.000000 0.000000
vt 0.000000 0.000000
vt 0.000000 0.000000
vt 0.000000 0.000000
vt 0.000000 0.000000
vt 0.000000 0.000000
vt 0.000000 0.000000
vt 0.000000 0.000000
vt 0.000000 0.000000
vt 0.000000 0.000000
vt 0.000000 0.000000
vt 0.000000 0.000000
vt 0.000000 0.000000
vt 0.000000 0.000000
vt 0.000000 0.000000
vt 0.000000 0.000000
vt 0.000000 0.000000
vt 0.000000 0.000000
vt 0.000000 0.000000
vt 0.000000 0.000000
vt 0.000000 0.000000
vt 0.000000 0.000000
vt 0.000000 0.000000
vt 0.000000 0.000000
vt 0.000000 0.000000
vt 0.000000 0.000000
vt 0.000000 0.000000
vt 0.000000 0.000000
vt 0.000000 0.000000
vt 0.000000 0.000000
vt 0.000000 0.000000
vt 0.000000 0.000000
vt 0.000000 0.000000
vt 0.000000 0.000000
vt 0.000000 0.000000
vt 0.000000 0.000000
vt 0.000000 0.000000
vt 0.000000 0.000000
vt 0.000000 0.000000
vt 0.000000 0.000000
vt 0.000000 0.000000
vt 0.000000 0.000000
vt 0.000000 0.000000
vt 0.000000 0.000000
vt 0.000000 0.000000
vt 0.000000 0.000000
vt 0.000000 0.000000
vt 0.000000 0.000000
vt 0.000000 0.000000
vt 0.000000 0.000000
vt 0.000000 0.000000
vt 0.000000 0.000000
vt 0.000000 0.000000
vt 0.000000 0.000000
vt 0.000000 0.000000
vt 0.000000 0.000000
vt 0.000000 0.000000
vt 0.000000 0.000000
vt 0.000000 0.000000
vt 0.000000 0.000000
vt 0.000000 0.000000
vn 0.9569 0.2903 0.0000
vn -0.9952 0.0980 0.0000
vn 0.8819 0.4714 0.0000
vn -0.9952 -0.0980 0.0000
vn 0.7730 0.6344 0.0000
vn -0.9569 -0.2903 0.0000
vn 0.6344 0.7730 0.0000
vn -0.8819 -0.4714 0.0000
vn 0.4714 0.8819 0.0000
vn 0.0980 -0.9952 0.0000
vn -0.7730 -0.6344 0.0000
vn 0.2903 0.9569 0.0000
vn 0.2903 -0.9569 0.0000
vn -0.6344 -0.7730 0.0000
vn 0.0980 0.9952 0.0000
vn 0.4714 -0.8819 0.0000
vn -0.4714 -0.8819 0.0000
vn -0.0980 0.9952 0.0000
vn 0.6344 -0.7730 0.0000
vn -0.2903 -0.9569 0.0000
vn -0.2903 0.9569 0.0000
vn 0.7730 -0.6344 0.0000
vn -0.0980 -0.9952 0.0000
vn -0.4714 0.8819 0.0000
vn 0.8819 -0.4714 0.0000
vn -0.6344 0.7730 0.0000
vn 0.9569 -0.2903 0.0000
vn -0.7730 0.6344 0.0000
vn 0.9952 -0.0980 0.0000
vn -0.8819 0.4714 0.0000
vn 0.9952 0.0980 0.0000
vn -0.9569 0.2903 0.0000
vn -0.1145 0.3773 0.9190
vn 0.3048 -0.2501 0.9190
vn -0.0386 -0.3924 0.9190
vn -0.1859 0.3477 0.9190
vn 0.3477 -0.1859 0.9190
vn -0.2501 0.3048 0.9190
vn 0.3773 -0.1145 0.9190
vn -0.3048 0.2501 0.9190
vn 0.3924 -0.0386 0.9190
vn -0.3477 0.1859 0.9190
vn 0.3924 0.0386 0.9190
vn -0.3773 0.1145 0.9190
vn 0.3773 0.1145 0.9190
vn -0.3924 0.0386 0.9190
vn 0.3477 0.1859 0.9190
vn -0.3924 -0.0386 0.9190
vn 0.3048 0.2501 0.9190
vn -0.3773 -0.1145 0.9190
vn 0.2501 0.3048 0.9190
vn -0.3477 -0.1859 0.9190
vn 0.1859 0.3477 0.9190
vn 0.0386 -0.3924 0.9190
vn -0.3048 -0.2501 0.9190
vn 0.1145 0.3773 0.9190
vn 0.1145 -0.3773 0.9190
vn -0.2501 -0.3048 0.9190
vn 0.0386 0.3924 0.9190
vn 0.1859 -0.3477 0.9190
vn -0.1859 -0.3477 0.9190
vn -0.0386 0.3924 0.9190
vn 0.2501 -0.3048 0.9190
vn -0.1145 -0.3773 0.9190
vn 0.0000 0.0000 1.0000
vn -0.9533 -0.2892 -0.0874
vn 0.9914 -0.0976 -0.0874
vn -0.8785 -0.4696 -0.0874
vn 0.9914 0.0976 -0.0874
vn -0.7701 -0.6320 -0.0874
vn 0.9533 0.2892 -0.0874
vn -0.6320 -0.7701 -0.0874
vn 0.8785 0.4696 -0.0874
vn -0.4696 -0.8785 -0.0874
vn -0.0976 0.9914 -0.0874
vn 0.7701 0.6320 -0.0874
vn -0.2892 -0.9533 -0.0874
vn -0.2892 0.9533 -0.0874
vn 0.6320 0.7701 -0.0874
vn -0.0976 -0.9914 -0.0874
vn -0.4696 0.8785 -0.0874
vn 0.4696 0.8785 -0.0874
vn 0.0976 -0.9914 -0.0874
vn -0.6320 0.7700 -0.0874
vn 0.2892 0.9533 -0.0874
vn 0.2892 -0.9533 -0.0874
vn -0.7701 0.6320 -0.0874
vn 0.0976 0.9914 -0.0874
vn 0.4696 -0.8785 -0.0874
vn -0.8785 0.4696 -0.0874
vn 0.6320 -0.7700 -0.0874
vn -0.9533 0.2892 -0.0874
vn 0.7701 -0.6320 -0.0874
vn -0.9914 0.0976 -0.0874
vn 0.8785 -0.4696 -0.0874
vn -0.9914 -0.0976 -0.0874
vn 0.9533 -0.2892 -0.0874
vn 0.1128 -0.3719 -0.9214
vn -0.3004 0.2466 -0.9214
vn 0.0381 0.3868 -0.9214
vn 0.1832 -0.3428 -0.9214
vn -0.3428 0.1832 -0.9214
vn 0.2466 -0.3004 -0.9214
vn -0.3719 0.1128 -0.9214
vn 0.3004 -0.2466 -0.9214
vn -0.3868 0.0381 -0.9214
vn 0.3428 -0.1832 -0.9214
vn -0.3868 -0.0381 -0.9214
vn 0.3719 -0.1128 -0.9214
vn -0.3719 -0.1128 -0.9214
vn 0.3868 -0.0381 -0.9214
vn -0.3428 -0.1832 -0.9214
vn 0.3868 0.0381 -0.9214
vn -0.3004 -0.2466 -0.9214
vn 0.3719 0.1128 -0.9214
vn -0.2466 -0.3004 -0.9214
vn 0.3428 0.1832 -0.9214
vn -0.1832 -0.3428 -0.9214
vn -0.0381 0.3868 -0.9214
vn 0.3004 0.2466 -0.9214
vn -0.1128 -0.3719 -0.9214
vn -0.1128 0.3719 -0.9214
vn 0.2466 0.3004 -0.9214
vn -0.0381 -0.3868 -0.9214
vn -0.1832 0.3428 -0.9214
vn 0.1832 0.3428 -0.9214
vn 0.0381 -0.3868 -0.9214
vn -0.2466 0.3004 -0.9214
vn 0.1128 0.3719 -0.9214
vn -0.0000 0.0000 -1.0000
vn -0.0902 0.9159 0.3911
vn -0.2672 0.8807 0.3911
vn -0.4339 0.8117 0.3911
vn -0.5839 0.7114 0.3911
vn -0.7114 0.5839 0.3911
vn -0.8117 0.4339 0.3911
vn -0.8807 0.2672 0.3911
vn -0.9159 0.0902 0.3911
vn -0.9159 -0.0902 0.3911
vn -0.8807 -0.2672 0.3911
vn -0.8117 -0.4339 0.3911
vn -0.7114 -0.5839 0.3911
vn -0.5839 -0.7114 0.3911
vn -0.4339 -0.8117 0.3911
vn -0.2672 -0.8807 0.3911
vn -0.0902 -0.9159 0.3911
vn 0.0902 -0.9159 0.3911
vn 0.2672 -0.8807 0.3911
vn 0.4339 -0.8117 0.3911
vn 0.5839 -0.7114 0.3911
vn 0.7114 -0.5839 0.3911
vn 0.8117 -0.4339 0.3911
vn 0.8807 -0.2672 0.3911
vn 0.9159 -0.0902 0.3911
vn 0.9159 0.0902 0.3911
vn 0.8807 0.2672 0.3911
vn 0.8117 0.4339 0.3911
vn 0.7114 0.5839 0.3911
vn 0.5839 0.7114 0.3911
vn 0.4339 0.8117 0.3911
vn 0.2672 0.8807 0.3911
vn 0.0902 0.9159 0.3911
usemtl None
s off
f 11/1/1 10/2/1 42/3/1 43/4/1
f 25/5/2 24/6/2 56/7/2 57/8/2
f 12/9/3 11/1/3 43/4/3 44/10/3
f 26/11/4 25/5/4 57/8/4 58/12/4
f 13/13/5 12/9/5 44/10/5 45/14/5
f 27/15/6 26/11/6 58/12/6 59/16/6
f 14/17/7 13/13/7 45/14/7 46/18/7
f 28/19/8 27/15/8 59/16/8 60/20/8
f 15/21/9 14/17/9 46/18/9 47/22/9
f 2/23/10 1/24/10 33/25/10 34/26/10
f 29/27/11 28/19/11 60/20/11 61/28/11
f 16/29/12 15/21/12 47/22/12 48/30/12
f 3/31/13 2/23/13 34/26/13 35/32/13
f 30/33/14 29/27/14 61/28/14 62/34/14
f 17/35/15 16/29/15 48/30/15 49/36/15
f 4/37/16 3/31/16 35/32/16 36/38/16
f 31/39/17 30/33/17 62/34/17 63/40/17
f 18/41/18 17/35/18 49/36/18 50/42/18
f 5/43/19 4/37/19 36/38/19 37/44/19
f 32/45/20 31/39/20 63/40/20 64/46/20
f 19/47/21 18/41/21 50/42/21 51/48/21
f 6/49/22 5/43/22 37/44/22 38/50/22
f 1/24/23 32/45/23 64/46/23 33/25/23
f 20/51/24 19/47/24 51/48/24 52/52/24
f 7/53/25 6/49/25 38/50/25 39/54/25
f 21/55/26 20/51/26 52/52/26 53/56/26
f 8/57/27 7/53/27 39/54/27 40/58/27
f 22/59/28 21/55/28 53/56/28 54/60/28
f 9/61/29 8/57/29 40/58/29 41/62/29
f 23/63/30 22/59/30 54/60/30 55/64/30
f 10/2/31 9/61/31 41/62/31 42/3/31
f 24/6/32 23/63/32 55/64/32 56/7/32
f 51/48/33 50/42/33 82/65/33 83/66/33
f 38/50/34 37/44/34 69/67/34 70/68/34
f 33/25/35 64/46/35 96/69/35 65/70/35
f 52/52/36 51/48/36 83/66/36 84/71/36
f 39/54/37 38/50/37 70/68/37 71/72/37
f 53/56/38 52/52/38 84/71/38 85/73/38
f 40/58/39 39/54/39 71/72/39 72/74/39
f 54/60/40 53/56/40 85/73/40 86/75/40
f 41/62/41 40/58/41 72/74/41 73/76/41
f 55/64/42 54/60/42 86/75/42 87/77/42
f 42/3/43 41/62/43 73/76/43 74/78/43
f 56/7/44 55/64/44 87/77/44 88/79/44
f 43/4/45 42/3/45 74/78/45 75/80/45
f 57/8/46 56/7/46 88/79/46 89/81/46
f 44/10/47 43/4/47 75/80/47 76/82/47
f 58/12/48 57/8/48 89/81/48 90/83/48
f 45/14/49 44/10/49 76/82/49 77/84/49
f 59/16/50 58/12/50 90/83/50 91/85/50
f 46/18/51 45/14/51 77/84/51 78/86/51
f 60/20/52 59/16/52 91/85/52 92/87/52
f 47/22/53 46/18/53 78/86/53 79/88/53
f 34/26/54 33/25/54 65/70/54 66/89/54
f 61/28/55 60/20/55 92/87/55 93/90/55
f 48/30/56 47/22/56 79/88/56 80/91/56
f 35/32/57 34/26/57 66/89/57 67/92/57
f 62/34/58 61/28/58 93/90/58 94/93/58
f 49/36/59 48/30/59 80/91/59 81/94/59
f 36/38/60 35/32/60 67/92/60 68/95/60
f 63/40/61 62/34/61 94/93/61 95/96/61
f 50/42/62 49/36/62 81/94/62 82/65/62
f 37/44/63 36/38/63 68/95/63 69/67/63
f 64/46/64 63/40/64 95/96/64 96/69/64
f 2/23/65 3/31/65 4/37/65 5/43/65 6/49/65 7/53/65 8/57/65 9/61/65 10/2/65 11/1/65 12/9/65 13/13/65 14/17/65 15/21/65 16/29/65 17/35/65 18/41/65 19/47/65 20/51/65 21/55/65 22/59/65 23/63/65 24/6/65 25/5/65 26/11/65 27/15/65 28/19/65 29/27/65 30/33/65 31/39/65 32/45/65 1/24/65
f 107/97/66 139/98/66 138/99/66 106/100/66
f 121/101/67 153/102/67 152/103/67 120/104/67
f 108/105/68 140/106/68 139/98/68 107/97/68
f 122/107/69 154/108/69 153/102/69 121/101/69
f 109/109/70 141/110/70 140/106/70 108/105/70
f 123/111/71 155/112/71 154/108/71 122/107/71
f 110/113/72 142/114/72 141/110/72 109/109/72
f 124/115/73 156/116/73 155/112/73 123/111/73
f 111/117/74 143/118/74 142/114/74 110/113/74
f 98/119/75 130/120/75 129/121/75 97/122/75
f 125/123/76 157/124/76 156/116/76 124/115/76
f 112/125/77 144/126/77 143/118/77 111/117/77
f 99/127/78 131/128/78 130/120/78 98/119/78
f 126/129/79 158/130/79 157/124/79 125/123/79
f 113/131/80 145/132/80 144/126/80 112/125/80
f 100/133/81 132/134/81 131/128/81 99/127/81
f 127/135/82 159/136/82 158/130/82 126/129/82
f 114/137/83 146/138/83 145/132/83 113/131/83
f 101/139/84 133/140/84 132/134/84 100/133/84
f 128/141/85 160/142/85 159/136/85 127/135/85
f 115/143/86 147/144/86 146/138/86 114/137/86
f 102/145/87 134/146/87 133/140/87 101/139/87
f 97/122/88 129/121/88 160/142/88 128/141/88
f 116/147/89 148/148/89 147/144/89 115/143/89
f 103/149/90 135/150/90 134/146/90 102/145/90
f 117/151/91 149/152/91 148/148/91 116/147/91
f 104/153/92 136/154/92 135/150/92 103/149/92
f 118/155/93 150/156/93 149/152/93 117/151/93
f 105/157/94 137/158/94 136/154/94 104/153/94
f 119/159/95 151/160/95 150/156/95 118/155/95
f 106/100/96 138/99/96 137/158/96 105/157/96
f 120/104/97 152/103/97 151/160/97 119/159/97
f 147/144/98 179/161/98 178/162/98 146/138/98
f 134/146/99 166/163/99 165/164/99 133/140/99
f 129/121/100 161/165/100 192/166/100 160/142/100
f 148/148/101 180/167/101 179/161/101 147/144/101
f 135/150/102 167/168/102 166/163/102 134/146/102
f 149/152/103 181/169/103 180/167/103 148/148/103
f 136/154/104 168/170/104 167/168/104 135/150/104
f 150/156/105 182/171/105 181/169/105 149/152/105
f 137/158/106 169/172/106 168/170/106 136/154/106
f 151/160/107 183/173/107 182/171/107 150/156/107
f 138/99/108 170/174/108 169/172/108 137/158/108
f 152/103/109 184/175/109 183/173/109 151/160/109
f 139/98/110 171/176/110 170/174/110 138/99/110
f 153/102/111 185/177/111 184/175/111 152/103/111
f 140/106/112 172/178/112 171/176/112 139/98/112
f 154/108/113 186/179/113 185/177/113 153/102/113
f 141/110/114 173/180/114 172/178/114 140/106/114
f 155/112/115 187/181/115 186/179/115 154/108/115
f 142/114/116 174/182/116 173/180/116 141/110/116
f 156/116/117 188/183/117 187/181/117 155/112/117
f 143/118/118 175/184/118 174/182/118 142/114/118
f 130/120/119 162/185/119 161/165/119 129/121/119
f 157/124/120 189/186/120 188/183/120 156/116/120
f 144/126/121 176/187/121 175/184/121 143/118/121
f 131/128/122 163/188/122 162/185/122 130/120/122
f 158/130/123 190/189/123 189/186/123 157/124/123
f 145/132/124 177/190/124 176/187/124 144/126/124
f 132/134/125 164/191/125 163/188/125 131/128/125
f 159/136/126 191/192/126 190/189/126 158/130/126
f 146/138/127 178/162/127 177/190/127 145/132/127
f 133/140/128 165/164/128 164/191/128 132/134/128
f 160/142/129 192/166/129 191/192/129 159/136/129
f 98/119/130 97/122/130 128/141/130 127/135/130 126/129/130 125/123/130 124/115/130 123/111/130 122/107/130 121/101/130 120/104/130 119/159/130 118/155/130 117/151/130 116/147/130 115/143/130 114/137/130 113/131/130 112/125/130 111/117/130 110/113/130 109/109/130 108/105/130 107/97/130 106/100/130 105/157/130 104/153/130 103/149/130 102/145/130 101/139/130 100/133/130 99/127/130
f 66/89/131 65/70/131 161/165/131 162/185/131
f 67/92/132 66/89/132 162/185/132 163/188/132
f 68/95/133 67/92/133 163/188/133 164/191/133
f 69/67/134 68/95/134 164/191/134 165/164/134
f 70/68/135 69/67/135 165/164/135 166/163/135
f 71/72/136 70/68/136 166/163/136 167/168/136
f 72/74/137 71/72/137 167/168/137 168/170/137
f 73/76/138 72/74/138 168/170/138 169/172/138
f 74/78/139 73/76/139 169/172/139 170/174/139
f 75/80/140 74/78/140 170/174/140 171/176/140
f 76/82/141 75/80/141 171/176/141 172/178/141
f 77/84/142 76/82/142 172/178/142 173/180/142
f 78/86/143 77/84/143 173/180/143 174/182/143
f 79/88/144 78/86/144 174/182/144 175/184/144
f 80/91/145 79/88/145 175/184/145 176/187/145
f 81/94/146 80/91/146 176/187/146 177/190/146
f 82/65/147 81/94/147 177/190/147 178/162/147
f 83/66/148 82/65/148 178/162/148 179/161/148
f 84/71/149 83/66/149 179/161/149 180/167/149
f 85/73/150 84/71/150 180/167/150 181/169/150
f 86/75/151 85/73/151 181/169/151 182/171/151
f 87/77/152 86/75/152 182/171/152 183/173/152
f 88/79/153 87/77/153 183/173/153 184/175/153
f 89/81/154 88/79/154 184/175/154 185/177/154
f 90/83/155 89/81/155 185/177/155 186/179/155
f 91/85/156 90/83/156 186/179/156 187/181/156
f 92/87/157 91/85/157 187/181/157 188/183/157
f 93/90/158 92/87/158 188/183/158 189/186/158
f 94/93/159 93/90/159 189/186/159 190/189/159
f 95/96/160 94/93/160 190/189/160 191/192/160
f 96/69/161 95/96/161 191/192/161 192/166/161
f 65/70/162 96/69/162 192/166/162 161/165/162
