# Blender v2.92.0 OBJ File: 'trans_models_keypoint.blend'
# www.blender.org
mtllib knife_1.mtl
o knife_1_Plane.011
v 0.001868 0.006670 -0.001908
v -0.084131 0.006877 -0.001031
v -0.080059 -0.000324 -0.001031
v -0.073906 -0.004162 -0.001031
v -0.064688 -0.008069 -0.001031
v -0.054533 -0.009294 -0.001031
v -0.046445 -0.009669 -0.001031
v -0.038216 -0.009548 -0.001031
v -0.030074 -0.008735 -0.001031
v -0.018394 -0.006994 -0.001031
v -0.005845 -0.004942 -0.001031
v -0.001670 -0.004131 -0.001908
v 0.006156 -0.003152 -0.001908
v 0.015013 -0.003242 -0.001908
v 0.044771 -0.005253 -0.001908
v 0.036849 -0.004522 -0.001908
v -0.082350 0.002016 -0.001031
v -0.084526 0.004695 -0.001031
v 0.083203 -0.003383 -0.001790
v 0.053650 -0.005296 -0.001982
v 0.059065 -0.004905 -0.001951
v 0.093024 -0.001837 -0.002060
v 0.007924 0.006725 -0.001843
v 0.012968 0.006686 -0.001851
v 0.044983 0.008834 -0.001914
v 0.037056 0.008530 -0.001906
v 0.083331 0.006800 -0.001969
v 0.053557 0.008734 -0.001839
v 0.059250 0.008374 -0.001862
v 0.093137 0.005427 -0.002246
v 0.093939 0.001781 -0.002153
v -0.010105 0.006687 -0.001031
v -0.022422 0.006754 -0.001031
v -0.034862 0.006712 -0.001031
v -0.047301 0.006667 -0.001031
v -0.059496 0.006739 -0.001031
v -0.071813 0.006933 -0.001031
v 0.001868 0.006670 -0.001908
v -0.084131 0.006877 -0.001031
v -0.080059 -0.000324 -0.001031
v -0.073906 -0.004162 -0.001031
v -0.064688 -0.008069 -0.001031
v -0.054533 -0.009294 -0.001031
v -0.046445 -0.009669 -0.001031
v -0.038216 -0.009548 -0.001031
v -0.030074 -0.008735 -0.001031
v -0.018394 -0.006994 -0.001031
v -0.005845 -0.004942 -0.001031
v -0.001670 -0.004131 -0.001908
v 0.006156 -0.003152 -0.001908
v 0.015013 -0.003242 -0.001908
v 0.044771 -0.005253 -0.001908
v 0.036849 -0.004522 -0.001908
v -0.082350 0.002016 -0.001031
v -0.084526 0.004695 -0.001031
v 0.083203 -0.003383 -0.001790
v 0.053650 -0.005296 -0.001982
v 0.059065 -0.004905 -0.001951
v 0.093024 -0.001837 -0.002060
v 0.007924 0.006725 -0.001843
v 0.012968 0.006686 -0.001851
v 0.044983 0.008834 -0.001914
v 0.037056 0.008530 -0.001906
v 0.083331 0.006800 -0.001969
v 0.053557 0.008734 -0.001839
v 0.059250 0.008374 -0.001862
v 0.093137 0.005427 -0.002246
v 0.093939 0.001781 -0.002153
v -0.010105 0.006687 -0.001031
v -0.022422 0.006754 -0.001031
v -0.034862 0.006712 -0.001031
v -0.047301 0.006667 -0.001031
v -0.059496 0.006739 -0.001031
v -0.071813 0.006933 -0.001031
v 0.001868 0.006670 0.001938
v -0.084131 0.006877 0.001062
v -0.080059 -0.000324 0.001062
v -0.073906 -0.004162 0.001062
v -0.064688 -0.008069 0.001062
v -0.054533 -0.009294 0.001062
v -0.046445 -0.009669 0.001062
v -0.038216 -0.009548 0.001062
v -0.030074 -0.008735 0.001062
v -0.018394 -0.006994 0.001062
v -0.005845 -0.004942 0.001062
v -0.001670 -0.004131 0.001938
v 0.006156 -0.003152 0.001938
v 0.015013 -0.003242 0.001938
v 0.044771 -0.005253 0.001938
v 0.036849 -0.004522 0.001938
v -0.082350 0.002016 0.001062
v -0.084526 0.004695 0.001062
v 0.083203 -0.003383 0.002056
v 0.053650 -0.005296 0.001864
v 0.059065 -0.004905 0.001894
v 0.093024 -0.001837 0.001786
v 0.007924 0.006725 0.002003
v 0.012968 0.006686 0.001995
v 0.044983 0.008834 0.001932
v 0.037056 0.008530 0.001940
v 0.083331 0.006800 0.001877
v 0.053557 0.008734 0.002006
v 0.059250 0.008374 0.001984
v 0.093137 0.005427 0.001599
v 0.093939 0.001781 0.001693
v -0.010105 0.006687 0.001062
v -0.022422 0.006754 0.001062
v -0.034862 0.006712 0.001062
v -0.047301 0.006667 0.001062
v -0.059496 0.006739 0.001062
v -0.071813 0.006933 0.001062
v 0.001868 0.006670 0.001938
v -0.084131 0.006877 0.001062
v -0.080059 -0.000324 0.001062
v -0.073906 -0.004162 0.001062
v -0.064688 -0.008069 0.001062
v -0.054533 -0.009294 0.001062
v -0.046445 -0.009669 0.001062
v -0.038216 -0.009548 0.001062
v -0.030074 -0.008735 0.001062
v -0.018394 -0.006994 0.001062
v -0.005845 -0.004942 0.001062
v -0.001670 -0.004131 0.001938
v 0.006156 -0.003152 0.001938
v 0.015013 -0.003242 0.001938
v 0.044771 -0.005253 0.001938
v 0.036849 -0.004522 0.001938
v -0.082350 0.002016 0.001062
v -0.084526 0.004695 0.001062
v 0.083203 -0.003383 0.002056
v 0.053650 -0.005296 0.001864
v 0.059065 -0.004905 0.001894
v 0.093024 -0.001837 0.001786
v 0.007924 0.006725 0.002003
v 0.012968 0.006686 0.001995
v 0.044983 0.008834 0.001932
v 0.037056 0.008530 0.001940
v 0.083331 0.006800 0.001877
v 0.053557 0.008734 0.002006
v 0.059250 0.008374 0.001984
v 0.093137 0.005427 0.001599
v 0.093939 0.001781 0.001693
v -0.010105 0.006687 0.001062
v -0.022422 0.006754 0.001062
v -0.034862 0.006712 0.001062
v -0.047301 0.006667 0.001062
v -0.059496 0.006739 0.001062
v -0.071813 0.006933 0.001062
vt 0.000000 0.000000
vt 0.000000 0.000000
vt 0.000000 0.000000
vt 0.000000 0.000000
vt 0.000000 0.000000
vt 0.000000 0.000000
vt 0.000000 0.000000
vt 0.000000 0.000000
vt 0.000000 0.000000
vt 0.000000 0.000000
vt 0.000000 0.000000
vt 0.000000 0.000000
vt 0.000000 0.000000
vt 0.000000 0.000000
vt 0.000000 0.000000
vt 0.000000 0.000000
vt 0.000000 0.000000
vt 0.000000 0.000000
vt 0.000000 0.000000
vt 0.000000 0.000000
vt 0.000000 0.000000
vt 0.000000 0.000000
vt 0.000000 0.000000
vt 0.000000 0.000000
vt 0.000000 0.000000
vt 0.000000 0.000000
vt 0.000000 0.000000
vt 0.000000 0.000000
vt 0.000000 0.000000
vt 0.000000 0.000000
vt 0.000000 0.000000
vt 0.000000 0.000000
vt 0.000000 0.000000
vt 0.000000 0.000000
vt 0.000000 0.000000
vt 0.000000 0.000000
vt 0.000000 0.000000
vt 0.000000 0.000000
vt 0.000000 0.000000
vt 0.000000 0.000000
vt 0.000000 0.000000
vt 0.000000 0.000000
vt 0.000000 0.000000
vt 0.000000 0.000000
vt 0.000000 0.000000
vt 0.000000 0.000000
vt 0.000000 0.000000
vt 0.000000 0.000000
vt 0.000000 0.000000
vt 0.000000 0.000000
vt 0.000000 0.000000
vt 0.000000 0.000000
vt 0.000000 0.000000
vt 0.000000 0.000000
vt 0.000000 0.000000
vt 0.000000 0.000000
vt 0.000000 0.000000
vt 0.000000 0.000000
vt 0.000000 0.000000
vt 0.000000 0.000000
vt 0.000000 0.000000
vt 0.000000 0.000000
vt 0.000000 0.000000
vt 0.000000 0.000000
vt 0.000000 0.000000
vt 0.000000 0.000000
vt 0.000000 0.000000
vt 0.000000 0.000000
vt 0.000000 0.000000
vt 0.000000 0.000000
vt 0.000000 0.000000
vt 0.000000 0.000000
vt 0.000000 0.000000
vt 0.000000 0.000000
vt 0.000000 0.000000
vt 0.000000 0.000000
vt 0.000000 0.000000
vt 0.000000 0.000000
vt 0.000000 0.000000
vt 0.000000 0.000000
vt 0.000000 0.000000
vt 0.000000 0.000000
vt 0.000000 0.000000
vt 0.000000 0.000000
vt 0.000000 0.000000
vt 0.000000 0.000000
vt 0.000000 0.000000
vt 0.000000 0.000000
vt 0.000000 0.000000
vt 0.000000 0.000000
vt 0.000000 0.000000
vt 0.000000 0.000000
vt 0.000000 0.000000
vt 0.000000 0.000000
vt 0.000000 0.000000
vt 0.000000 0.000000
vt 0.000000 0.000000
vt 0.000000 0.000000
vt 0.000000 0.000000
vt 0.000000 0.000000
vt 0.000000 0.000000
vt 0.000000 0.000000
vt 0.000000 0.000000
vt 0.000000 0.000000
vt 0.000000 0.000000
vt 0.000000 0.000000
vt 0.000000 0.000000
vt 0.000000 0.000000
vt 0.000000 0.000000
vt 0.000000 0.000000
vt 0.000000 0.000000
vt 0.000000 0.000000
vt 0.000000 0.000000
vt 0.000000 0.000000
vt 0.000000 0.000000
vt 0.000000 0.000000
vt 0.000000 0.000000
vt 0.000000 0.000000
vt 0.000000 0.000000
vt 0.000000 0.000000
vt 0.000000 0.000000
vt 0.000000 0.000000
vt 0.000000 0.000000
vt 0.000000 0.000000
vt 0.000000 0.000000
vt 0.000000 0.000000
vt 0.000000 0.000000
vt 0.000000 0.000000
vt 0.000000 0.000000
vt 0.000000 0.000000
vt 0.000000 0.000000
vt 0.000000 0.000000
vt 0.000000 0.000000
vt 0.000000 0.000000
vt 0.000000 0.000000
vt 0.000000 0.000000
vt 0.000000 0.000000
vt 0.000000 0.000000
vt 0.000000 0.000000
vt 0.000000 0.000000
vt 0.000000 0.000000
vt 0.000000 0.000000
vt 0.000000 0.000000
vt 0.000000 0.000000
vt 0.000000 0.000000
vt 0.000000 0.000000
vt 0.000000 0.000000
vt 0.000000 0.000000
vn -0.0054 -0.0004 -1.0000
vn -0.0035 0.0001 1.0000
vn 0.1387 0.9903 0.0000
vn 0.0000 0.0000 1.0000
vn 0.1242 -0.9923 0.0000
vn -0.0045 1.0000 0.0000
vn 0.0652 0.9979 0.0000
vn -0.0102 -0.9999 0.0000
vn -0.9840 0.1781 0.0000
vn 0.0630 0.9980 0.0000
vn -0.0585 -0.9983 0.0000
vn -0.7762 -0.6305 0.0000
vn 0.0117 0.9999 0.0000
vn -0.0918 -0.9958 0.0000
vn -0.7144 -0.6997 0.0000
vn -0.0384 0.9993 -0.0000
vn -0.0048 -1.0000 0.0000
vn -0.5293 -0.8485 0.0000
vn -0.0763 0.9971 0.0000
vn 0.0719 -0.9974 0.0000
vn -0.3903 -0.9207 0.0000
vn 0.0078 1.0000 0.0000
vn 0.0630 -0.9980 0.0000
vn -0.1197 -0.9928 0.0000
vn -0.0091 1.0000 -0.0000
vn 0.1555 -0.9878 0.0000
vn -0.0463 -0.9989 0.0000
vn 0.0015 1.0000 0.0000
vn 0.0147 -0.9999 0.0000
vn 0.0054 1.0000 0.0000
vn 0.0993 -0.9951 0.0000
vn -0.0034 1.0000 0.0000
vn 0.1475 -0.9891 0.0000
vn -0.0037 1.0000 0.0000
vn 0.9695 -0.2452 0.0000
vn 0.1614 -0.9869 0.0000
vn 0.0060 1.0000 -0.0000
vn 0.9766 0.2149 0.0000
vn 0.1906 -0.9817 0.0000
vn 0.0157 0.9999 0.0000
usemtl None
s off
f 59/1/1 22/2/1 56/3/1 19/4/1 58/5/1 21/6/1 57/7/1 20/8/1 52/9/1 15/10/1 53/11/1 16/12/1 51/13/1 14/14/1 50/15/1 13/16/1 49/17/1 12/18/1 48/19/1 11/20/1 47/21/1 10/22/1 46/23/1 9/24/1 45/25/1 8/26/1 44/27/1 7/28/1 43/29/1 6/30/1 42/31/1 5/32/1 41/33/1 4/34/1 40/35/1 3/36/1 54/37/1 17/38/1 55/39/1 18/40/1 39/41/1 2/42/1 74/43/1 37/44/1 73/45/1 36/46/1 72/47/1 35/48/1 71/49/1 34/50/1 70/51/1 33/52/1 69/53/1 32/54/1 38/55/1 1/56/1 60/57/1 23/58/1 61/59/1 24/60/1 63/61/1 26/62/1 62/63/1 25/64/1 65/65/1 28/66/1 66/67/1 29/68/1 64/69/1 27/70/1 67/71/1 30/72/1 68/73/1 31/74/1
f 133/75/2 105/76/2 142/77/2 104/78/2 141/79/2 101/80/2 138/81/2 103/82/2 140/83/2 102/84/2 139/85/2 99/86/2 136/87/2 100/88/2 137/89/2 98/90/2 135/91/2 97/92/2 134/93/2 75/94/2 112/95/2 106/96/2 143/97/2 107/98/2 144/99/2 108/100/2 145/101/2 109/102/2 146/103/2 110/104/2 147/105/2 111/106/2 148/107/2 76/108/2 113/109/2 92/110/2 129/111/2 91/112/2 128/113/2 77/114/2 114/115/2 78/116/2 115/117/2 79/118/2 116/119/2 80/120/2 117/121/2 81/122/2 118/123/2 82/124/2 119/125/2 83/126/2 120/127/2 84/128/2 121/129/2 85/130/2 122/131/2 86/132/2 123/133/2 87/134/2 124/135/2 88/136/2 125/137/2 90/138/2 127/139/2 89/140/2 126/141/2 94/142/2 131/143/2 95/144/2 132/145/2 93/146/2 130/147/2 96/148/2
f 67/71/3 27/70/3 101/80/3 141/79/3
f 12/18/4 49/17/4 123/133/4 86/132/4
f 37/44/4 74/43/4 148/107/4 111/106/4
f 27/70/4 64/69/4 138/81/4 101/80/4
f 49/17/5 13/16/5 87/134/5 123/133/5
f 74/43/6 2/42/6 76/108/6 148/107/6
f 64/69/7 29/68/7 103/82/7 138/81/7
f 13/16/4 50/15/4 124/135/4 87/134/4
f 2/42/4 39/41/4 113/109/4 76/108/4
f 29/68/4 66/67/4 140/83/4 103/82/4
f 50/15/8 14/14/8 88/136/8 124/135/8
f 39/41/9 18/40/9 92/110/9 113/109/9
f 66/67/10 28/66/10 102/84/10 140/83/10
f 14/14/4 51/13/4 125/137/4 88/136/4
f 18/40/4 55/39/4 129/111/4 92/110/4
f 28/66/4 65/65/4 139/85/4 102/84/4
f 51/13/11 16/12/11 90/138/11 125/137/11
f 55/39/12 17/38/12 91/112/12 129/111/12
f 65/65/13 25/64/13 99/86/13 139/85/13
f 16/12/4 53/11/4 127/139/4 90/138/4
f 17/38/4 54/37/4 128/113/4 91/112/4
f 25/64/4 62/63/4 136/87/4 99/86/4
f 53/11/14 15/10/14 89/140/14 127/139/14
f 54/37/15 3/36/15 77/114/15 128/113/15
f 62/63/16 26/62/16 100/88/16 136/87/16
f 15/10/4 52/9/4 126/141/4 89/140/4
f 3/36/4 40/35/4 114/115/4 77/114/4
f 26/62/4 63/61/4 137/89/4 100/88/4
f 52/9/17 20/8/17 94/142/17 126/141/17
f 40/35/18 4/34/18 78/116/18 114/115/18
f 63/61/19 24/60/19 98/90/19 137/89/19
f 20/8/4 57/7/4 131/143/4 94/142/4
f 4/34/4 41/33/4 115/117/4 78/116/4
f 24/60/4 61/59/4 135/91/4 98/90/4
f 57/7/20 21/6/20 95/144/20 131/143/20
f 41/33/21 5/32/21 79/118/21 115/117/21
f 61/59/22 23/58/22 97/92/22 135/91/22
f 21/6/4 58/5/4 132/145/4 95/144/4
f 5/32/4 42/31/4 116/119/4 79/118/4
f 23/58/4 60/57/4 134/93/4 97/92/4
f 58/5/23 19/4/23 93/146/23 132/145/23
f 42/31/24 6/30/24 80/120/24 116/119/24
f 60/57/25 1/56/25 75/94/25 134/93/25
f 19/4/4 56/3/4 130/147/4 93/146/4
f 6/30/4 43/29/4 117/121/4 80/120/4
f 1/56/4 38/55/4 112/95/4 75/94/4
f 56/3/26 22/2/26 96/148/26 130/147/26
f 43/29/27 7/28/27 81/122/27 117/121/27
f 38/55/28 32/54/28 106/96/28 112/95/28
f 22/2/4 59/1/4 133/75/4 96/148/4
f 7/28/4 44/27/4 118/123/4 81/122/4
f 32/54/4 69/53/4 143/97/4 106/96/4
f 44/27/29 8/26/29 82/124/29 118/123/29
f 69/53/30 33/52/30 107/98/30 143/97/30
f 8/26/4 45/25/4 119/125/4 82/124/4
f 33/52/4 70/51/4 144/99/4 107/98/4
f 45/25/31 9/24/31 83/126/31 119/125/31
f 70/51/32 34/50/32 108/100/32 144/99/32
f 9/24/4 46/23/4 120/127/4 83/126/4
f 34/50/4 71/49/4 145/101/4 108/100/4
f 46/23/33 10/22/33 84/128/33 120/127/33
f 71/49/34 35/48/34 109/102/34 145/101/34
f 59/1/35 31/74/35 105/76/35 133/75/35
f 10/22/4 47/21/4 121/129/4 84/128/4
f 35/48/4 72/47/4 146/103/4 109/102/4
f 31/74/4 68/73/4 142/77/4 105/76/4
f 47/21/36 11/20/36 85/130/36 121/129/36
f 72/47/37 36/46/37 110/104/37 146/103/37
f 68/73/38 30/72/38 104/78/38 142/77/38
f 11/20/4 48/19/4 122/131/4 85/130/4
f 36/46/4 73/45/4 147/105/4 110/104/4
f 30/72/4 67/71/4 141/79/4 104/78/4
f 48/19/39 12/18/39 86/132/39 122/131/39
f 73/45/40 37/44/40 111/106/40 147/105/40
